<?xml version="1.0" standalone="no"?>
<!DOCTYPE svg PUBLIC "-//W3C//DTD SVG 20010904//EN"
 "http://www.w3.org/TR/2001/REC-SVG-20010904/DTD/svg10.dtd">
<svg version="1.0" xmlns="http://www.w3.org/2000/svg"
 width="1600.000000pt" height="1600.000000pt" viewBox="0 0 1600.000000 1600.000000"
 preserveAspectRatio="xMidYMid meet">
<metadata>
Created by potrace 1.14, written by Peter Selinger 2001-2017
</metadata>
<g transform="translate(0.000000,1600.000000) scale(0.100000,-0.100000)"
fill="#000000" stroke="none">
<path d="M4242 11120 c-90 -38 -202 -88 -249 -110 -47 -22 -87 -40 -89 -40 -8
0 -432 -212 -499 -250 -33 -18 -79 -43 -102 -56 -24 -13 -64 -36 -90 -50 -43
-24 -255 -149 -336 -199 -644 -392 -1280 -940 -1734 -1490 -447 -542 -777
-1144 -936 -1706 -31 -109 -43 -158 -62 -259 -3 -17 33 14 133 115 134 137
339 330 456 430 32 28 63 55 69 60 93 82 311 244 437 327 311 202 534 302 815
365 92 20 309 24 405 7 326 -57 590 -269 777 -624 44 -83 123 -279 143 -352 7
-27 15 -48 19 -48 3 0 78 29 166 63 88 35 228 85 310 111 83 27 157 51 165 54
88 31 468 120 585 137 23 3 50 7 60 9 229 43 673 53 895 21 361 -52 608 -132
910 -297 58 -32 239 -151 279 -184 254 -206 466 -438 622 -679 77 -119 101
-158 146 -240 77 -140 223 -453 237 -510 2 -5 8 -23 15 -40 41 -100 118 -355
160 -525 28 -116 34 -148 46 -224 5 -32 15 -47 16 -25 0 8 2 21 4 29 1 8 8 42
15 75 6 33 13 70 16 83 16 81 80 308 119 427 86 259 214 549 336 760 50 87
218 340 258 387 159 191 304 338 436 445 388 311 864 495 1370 531 169 12 473
5 600 -12 17 -3 68 -10 115 -16 145 -19 164 -22 171 -25 3 -2 21 -7 40 -10
251 -42 631 -154 967 -287 84 -33 154 -59 156 -57 1 2 17 49 35 104 165 498
474 828 852 911 129 28 328 27 459 -1 41 -9 83 -18 93 -20 66 -14 277 -96 391
-153 172 -84 378 -217 586 -376 58 -44 107 -83 110 -86 3 -3 25 -21 50 -41 51
-42 67 -56 164 -142 113 -100 230 -213 377 -361 100 -101 137 -133 134 -115
-40 216 -130 498 -235 739 -62 144 -197 407 -257 502 -12 21 -23 40 -23 44 0
8 -264 403 -292 436 -13 15 -39 49 -58 75 -48 66 -255 316 -326 394 -178 195
-471 472 -704 666 -192 159 -646 488 -735 533 -5 3 -43 26 -83 53 -40 26 -76
47 -81 47 -5 0 -11 3 -13 8 -3 7 -143 90 -273 162 -33 19 -96 54 -140 78 -80
45 -530 272 -538 272 -3 0 -43 17 -89 39 -191 88 -418 184 -423 179 -2 -2 -73
-190 -159 -418 -85 -228 -162 -431 -170 -451 -14 -33 -19 -37 -88 -52 -40 -9
-154 -35 -253 -58 -99 -22 -254 -58 -345 -79 -91 -21 -264 -60 -385 -88 -121
-28 -231 -53 -245 -56 -14 -3 -40 -9 -57 -15 -18 -5 -33 -8 -33 -6 0 3 -10 1
-23 -4 -13 -5 -41 -12 -61 -15 -21 -4 -41 -8 -45 -11 -4 -2 -18 -6 -32 -9 -13
-2 -96 -21 -184 -41 -88 -20 -187 -43 -220 -50 -33 -8 -161 -37 -284 -65 -123
-28 -225 -50 -226 -48 -3 3 -34 135 -80 343 -7 33 -27 121 -44 195 -18 74 -39
167 -47 205 -9 39 -17 77 -19 85 -13 51 -45 205 -45 214 0 24 -21 -16 -75
-139 -32 -71 -68 -154 -81 -183 -13 -29 -36 -80 -50 -115 -14 -34 -38 -89 -54
-122 -15 -33 -30 -70 -34 -82 -6 -18 -25 -26 -124 -49 -64 -15 -126 -27 -138
-26 -22 2 -225 50 -229 54 -2 2 -23 50 -48 108 -45 106 -183 419 -218 497 -10
23 -19 47 -19 52 0 6 -3 11 -7 11 -6 0 -42 -138 -68 -265 -12 -57 -50 -222
-70 -310 -13 -55 -26 -111 -28 -125 -3 -14 -10 -43 -15 -65 -6 -22 -13 -53
-16 -70 -3 -16 -10 -45 -15 -62 -5 -18 -8 -33 -6 -33 2 0 -2 -18 -10 -41 -8
-23 -13 -44 -11 -48 26 -42 -88 -21 -866 164 -35 8 -135 31 -223 51 -88 20
-207 47 -265 60 -58 14 -117 27 -132 29 -15 3 -37 9 -50 14 -13 5 -26 9 -31 9
-16 1 -126 25 -217 47 -52 12 -126 30 -165 38 -114 26 -468 107 -499 115 -26
7 -34 18 -62 92 -31 80 -257 686 -291 778 -9 23 -18 42 -22 42 -3 -1 -80 -32
-169 -70z"/>
</g>
</svg>
